<svg width="193" height="193" viewBox="0 0 193 193" fill="none" xmlns="http://www.w3.org/2000/svg">
<path d="M57.369 34.7422L31.5479 29.4183L36.3395 55.5056L88.7803 86.9169L57.369 34.7422Z" stroke="#DFDFDF" stroke-width="2"/>
<path d="M97.2986 2L82.924 24.0944L97.5648 83.7225L111.939 24.0944L97.2986 2Z" stroke="#DFDFDF" stroke-width="2"/>
<path d="M163.848 28.8859L136.962 34.7422L105.285 87.4493L158.258 55.5056L163.848 28.8859Z" stroke="#DFDFDF" stroke-width="2"/>
<path d="M110.076 94.6366L168.107 80.5282L191 95.169L168.373 109.81L110.076 94.6366Z" stroke="#DFDFDF" stroke-width="2"/>
<path d="M105.551 103.687L137.761 156.128L163.582 161.718L158.258 135.365L105.551 103.687Z" stroke="#DFDFDF" stroke-width="2"/>
<path d="M97.2986 107.414L82.3916 167.308L98.0972 190.201L112.206 166.776L97.2986 107.414Z" stroke="#DFDFDF" stroke-width="2"/>
<path d="M87.9817 104.486L36.0733 135.631L30.2169 161.985L57.1028 156.927L87.9817 104.486Z" stroke="#DFDFDF" stroke-width="2"/>
<path d="M85.3197 94.6366L26.4901 80.5282L2 95.169L26.4901 110.342L85.3197 94.6366Z" stroke="#DFDFDF" stroke-width="2"/>
</svg>
