<svg width="195" height="194" viewBox="0 0 195 194" fill="none" xmlns="http://www.w3.org/2000/svg">
<path d="M58.369 35.7422L32.5479 30.4183L37.3395 56.5056L89.7803 87.9169L58.369 35.7422Z" stroke="#DFDFDF" stroke-width="3"/>
<path d="M98.2986 3L83.924 25.0944L98.5648 84.7225L112.939 25.0944L98.2986 3Z" stroke="#DFDFDF" stroke-width="3"/>
<path d="M164.848 29.8859L137.962 35.7422L106.285 88.4493L159.258 56.5056L164.848 29.8859Z" stroke="#DFDFDF" stroke-width="3"/>
<path d="M111.076 95.6366L169.107 81.5282L192 96.169L169.373 110.81L111.076 95.6366Z" stroke="#DFDFDF" stroke-width="3"/>
<path d="M106.551 104.687L138.761 157.128L164.582 162.718L159.258 136.365L106.551 104.687Z" stroke="#DFDFDF" stroke-width="3"/>
<path d="M98.2986 108.414L83.3916 168.308L99.0972 191.201L113.206 167.776L98.2986 108.414Z" stroke="#DFDFDF" stroke-width="3"/>
<path d="M88.9817 105.486L37.0733 136.631L31.2169 162.985L58.1028 157.927L88.9817 105.486Z" stroke="#DFDFDF" stroke-width="3"/>
<path d="M86.3197 95.6366L27.4901 81.5282L3 96.169L27.4901 111.342L86.3197 95.6366Z" stroke="#DFDFDF" stroke-width="3"/>
</svg>
