<svg width="131" height="131" viewBox="0 0 131 131" fill="none" xmlns="http://www.w3.org/2000/svg">
<path d="M38.3018 23.3292L20.4399 19.6464L23.7545 37.6923L60.0306 59.4212L38.3018 23.3292Z" fill="#DFDFDF"/>
<path d="M65.9232 0.679688L55.9795 15.9635L66.1073 57.2115L76.051 15.9635L65.9232 0.679688Z" fill="#DFDFDF"/>
<path d="M111.959 19.278L93.3602 23.3291L71.4473 59.7893L108.092 37.6922L111.959 19.278Z" fill="#DFDFDF"/>
<path d="M74.762 64.7614L114.905 55.0018L130.741 65.1297L115.089 75.2575L74.762 64.7614Z" fill="#DFDFDF"/>
<path d="M71.6316 71.0222L93.9128 107.298L111.775 111.165L108.092 92.9352L71.6316 71.0222Z" fill="#DFDFDF"/>
<path d="M65.9231 73.6001L55.6111 115.032L66.4755 130.868L76.2351 114.664L65.9231 73.6001Z" fill="#DFDFDF"/>
<path d="M59.478 71.5747L23.5702 93.1194L19.519 111.35L38.1175 107.851L59.478 71.5747Z" fill="#DFDFDF"/>
<path d="M57.6367 64.7614L16.9411 55.0018L0 65.1297L16.9411 75.6258L57.6367 64.7614Z" fill="#DFDFDF"/>
</svg>
